<?xml version="1.0" encoding="UTF-8" standalone="no"?>
<svg width="168px" height="61px" viewBox="0 0 168 61" version="1.1" xmlns="http://www.w3.org/2000/svg" xmlns:xlink="http://www.w3.org/1999/xlink">
  <!-- Generator: Sketch 3.7 (28169) - http://www.bohemiancoding.com/sketch -->
  <title>middlebury</title>
  <desc>Created with Sketch.</desc>
  <defs></defs>
  <g id="Page-1" stroke="none" stroke-width="1" fill="none" fill-rule="evenodd">
    <g id="middlebury" fill="#FFFFFF">
      <g id="Page-1">
        <g id="middlebury">
          <polyline id="Fill-3" points="50.110362 16.7115 50.110362 8.71349998 49.0116321 8.71349998 49.0116321 16.08 43.067822 19.5765 37.1195252 16.08 37.1195252 8.71349998 36.0202968 8.71349998 36.0202968 16.7115 43.067822 20.854 50.110362 16.7115"></polyline>
          <path d="M42.4750861,17.88 L42.4750861,10.493 C41.1585045,8.06200002 38.227727,8.01449998 38.227727,8.01449998 C38.1853531,7.96650001 38.227727,15.4015 38.227727,15.4015 C38.227727,15.4015 41.1585045,15.449 42.4750861,17.88" id="Fill-4"></path>
          <path d="M47.8590623,15.465 C47.8590623,15.465 47.9029317,8.03000002 47.8590623,8.07849999 C47.8590623,8.07849999 44.8973769,8.12550003 43.5668368,10.5565 L43.5668368,17.9435 C44.8973769,15.5125 47.8590623,15.465 47.8590623,15.465" id="Fill-5"></path>
          <path d="M34.1418872,48.304 C34.0117745,48.726 33.7655074,48.9875 33.4614124,48.9875 C33.156819,48.9875 32.8960949,48.7475 32.7659822,48.1805 C32.700178,47.912 32.6642848,47.534 32.6642848,47.047 C32.6642848,46.531 32.7151335,46.117 32.8307893,45.8045 C32.9683798,45.42 33.185733,45.1945 33.4683917,45.1945 C33.7869436,45.1945 34.0332107,45.4125 34.1708012,45.979 C34.2435846,46.292 34.2794777,46.6185 34.2794777,47.091 C34.2794777,47.5775 34.2361068,47.9915 34.1418872,48.304 L34.1418872,48.304 L34.1418872,48.304 Z M33.4614124,44.5915 C32.4977804,44.5915 31.7729377,45.623 31.7729377,47.0545 C31.7729377,48.0935 32.1792285,49.583 33.4539347,49.583 C34.4684154,49.583 35.1633471,48.58 35.1633471,47.076 C35.1633471,46.023 34.7580534,44.5915 33.4614124,44.5915 L33.4614124,44.5915 L33.4614124,44.5915 Z" id="Fill-6"></path>
          <path d="M18.2850801,12.812 L15.9948961,12.812 C15.9649852,12.035 15.8742552,11.2945 15.7296855,10.605 L17.6893531,10.605 C18.0103976,11.2855 18.2187775,12.0275 18.2850801,12.812 L18.2850801,12.812 L18.2850801,12.812 Z M17.6888546,16.1215 L15.7291869,16.1215 C15.8742552,15.4315 15.9649852,14.6915 15.9948961,13.914 L18.2850801,13.914 C18.2187775,14.6985 18.0103976,15.441 17.6888546,16.1215 L17.6888546,16.1215 L17.6888546,16.1215 Z M14.463454,19.281 C14.8552878,18.7135 15.1848071,18.0165 15.439549,17.224 L17.0273234,17.224 C16.3657923,18.1125 15.485911,18.827 14.463454,19.281 L14.463454,19.281 L14.463454,19.281 Z M12.4085698,19.698 L12.4085698,17.224 L14.2864807,17.224 C13.8123917,18.518 13.1239407,19.3955 12.4085698,19.698 L12.4085698,19.698 L12.4085698,19.698 Z M12.4085698,13.914 L14.8966647,13.914 C14.8642611,14.716 14.7645578,15.4555 14.6110148,16.1215 L12.4085698,16.1215 L12.4085698,13.914 L12.4085698,13.914 L12.4085698,13.914 Z M12.4085698,10.605 L14.6110148,10.605 C14.7645578,11.2705 14.8642611,12.0105 14.8966647,12.812 L12.4085698,12.812 L12.4085698,10.605 L12.4085698,10.605 L12.4085698,10.605 Z M12.4085698,7.02800003 C13.1239407,7.33000002 13.8128902,8.20800001 14.2869792,9.50299997 L12.4085698,9.50299997 L12.4085698,7.02800003 L12.4085698,7.02800003 L12.4085698,7.02800003 Z M17.0273234,9.50299997 L15.439549,9.50299997 C15.1848071,8.70999997 14.8552878,8.01299998 14.463454,7.44500001 C15.4864095,7.8995 16.3662908,8.61400003 17.0273234,9.50299997 L17.0273234,9.50299997 L17.0273234,9.50299997 Z M11.3093413,9.50299997 L9.43143025,9.50299997 C9.90502079,8.20750001 10.5939703,7.32950002 11.3093413,7.02800003 L11.3093413,9.50299997 L11.3093413,9.50299997 L11.3093413,9.50299997 Z M11.3093413,12.812 L8.82174482,12.812 C8.85364987,12.0105 8.95385162,11.2705 9.10739469,10.605 L11.3093413,10.605 L11.3093413,12.812 L11.3093413,12.812 L11.3093413,12.812 Z M11.3093413,16.1215 L9.10739469,16.1215 C8.95385162,15.4555 8.85364987,14.716 8.82174482,13.914 L11.3093413,13.914 L11.3093413,16.1215 L11.3093413,16.1215 L11.3093413,16.1215 Z M11.3093413,19.6985 C10.5939703,19.397 9.90502079,18.519 9.43143025,17.224 L11.3093413,17.224 L11.3093413,19.6985 L11.3093413,19.6985 L11.3093413,19.6985 Z M6.69108608,17.224 L8.27886056,17.224 C8.53310389,18.016 8.86262312,18.7125 9.25395849,19.28 C8.232,18.8255 7.35261723,18.112 6.69108608,17.224 L6.69108608,17.224 L6.69108608,17.224 Z M6.0295549,16.1215 C5.70801187,15.441 5.49963205,14.6985 5.43332938,13.914 L7.72351334,13.914 C7.75292584,14.6915 7.84365576,15.4315 7.98872403,16.1215 L6.0295549,16.1215 L6.0295549,16.1215 L6.0295549,16.1215 Z M6.02905638,10.605 L7.98822552,10.605 C7.84365576,11.2945 7.75292584,12.035 7.72351334,12.812 L5.43332938,12.812 C5.49963205,12.0275 5.70801187,11.2855 6.02905638,10.605 L6.02905638,10.605 L6.02905638,10.605 Z M9.25345991,7.44600001 C8.86262312,8.01349998 8.53310389,8.71049997 8.27886056,9.50299997 L6.69108608,9.50299997 C7.35211872,8.61450003 8.23150149,7.9005 9.25345991,7.44600001 L9.25345991,7.44600001 L9.25345991,7.44600001 Z M11.8592047,5.788 C7.69459942,5.788 4.30618398,9.18600001 4.30618398,13.363 C4.30618398,17.54 7.69459942,20.9385 11.8592047,20.9385 C16.0238101,20.9385 19.411727,17.54 19.411727,13.363 C19.411727,9.18600001 16.0238101,5.788 11.8592047,5.788 L11.8592047,5.788 L11.8592047,5.788 Z" id="Fill-7"></path>
          <path d="M30.0859585,48.304 C29.9553471,48.726 29.7095786,48.9875 29.4049852,48.9875 C29.1008902,48.9875 28.8401662,48.7475 28.7095549,48.1805 C28.6442493,47.912 28.6083561,47.534 28.6083561,47.047 C28.6083561,46.531 28.6592047,46.117 28.7748606,45.8045 C28.912451,45.42 29.1298041,45.1945 29.4124629,45.1945 C29.7310148,45.1945 29.9772819,45.4125 30.1148724,45.979 C30.1871573,46.292 30.223549,46.6185 30.223549,47.091 C30.223549,47.5775 30.180178,47.9915 30.0859585,48.304 L30.0859585,48.304 L30.0859585,48.304 Z M29.4049852,44.5915 C28.4418516,44.5915 27.7175074,45.623 27.7175074,47.0545 C27.7175074,48.0935 28.1228012,49.583 29.398006,49.583 C30.4119881,49.583 31.1074184,48.58 31.1074184,47.076 C31.1074184,46.023 30.7016261,44.5915 29.4049852,44.5915 L29.4049852,44.5915 L29.4049852,44.5915 Z" id="Fill-8"></path>
          <path d="M53.4005698,27.441 C53.4005698,27.441 53.3995727,29.212 52.6837032,32.023 C52.3317507,32.006 51.9354302,31.9875 51.3910505,31.962 C49.2778398,31.8605 47.5345282,32.298 45.5554184,31.995 C43.5773056,31.6925 41.8668961,29.876 39.083181,29.3715 C37.0726647,29.007 35.4096142,28.9415 33.1772582,29.009 L33.1772582,23.0385 L22.0314302,23.0385 L22.0314302,28.8195 C21.687454,28.8075 21.3364985,28.7995 20.9730801,28.7995 C17.8204629,28.7995 16.6135549,27.925 13.3268368,27.925 C10.0401187,27.925 5.07689021,29.5395 2.32657567,30.4815 C2.28270623,30.4965 2.23833828,30.5115 2.19397032,30.5265 C1.81210683,28.599 1.80811869,27.441 1.80811869,27.441 L1.80811869,1.6945 L26.9632522,1.6945 L26.9632522,2.429 C26.4049139,2.6695 26.010089,3.203 26.010089,3.8325 C26.010089,4.461 26.4049139,4.9945 26.9632522,5.2345 L26.9632522,6.126 C26.1227537,6.435 24.6072641,7.17500002 23.915822,8.66850001 C23.2672522,10.0705 23.1486053,11.284 23.1421246,11.9485 L22.5454006,11.9485 L22.5454006,13.2345 L32.6632878,13.2345 L32.6632878,11.9485 L32.0665638,11.9485 C32.0600831,11.284 31.9414362,10.0705 31.2928665,8.66850001 C30.5999288,7.17200001 29.0849377,6.435 28.2454362,6.1275 L28.2454362,5.2355 C28.8037745,4.9955 29.1981009,4.461 29.1981009,3.8325 C29.1981009,3.203 28.8037745,2.6685 28.2454362,2.4285 L28.2454362,1.6945 L53.4005698,1.6945 L53.4005698,27.441 L53.4005698,27.441 L53.4005698,27.441 Z M46.8625282,43.9845 L35.02127,36.479 L35.02127,34.741 L47.7159881,42.7875 C47.4447953,43.184 47.1601424,43.583 46.8625282,43.9845 L46.8625282,43.9845 L46.8625282,43.9845 Z M27.6088308,59.119 C19.0278694,54.9975 13.302908,50.1075 9.47978633,45.4175 L20.2123442,38.674 L35.022267,38.674 L35.022267,38.6485 L45.757816,45.394 C41.939181,50.09 36.2102315,54.9895 27.6088308,59.119 L27.6088308,59.119 L27.6088308,59.119 Z M21.8464807,37.2005 L33.3622077,37.2005 L33.3622077,32.7635 L21.8464807,32.7635 L21.8464807,37.2005 L21.8464807,37.2005 Z M26.4163798,28.302 L28.7923086,28.302 L28.7923086,24.178 L26.4163798,24.178 L26.4163798,28.302 L26.4163798,28.302 Z M19.9581009,31.204 L35.2505876,31.204 L35.2505876,30.102 L19.9581009,30.102 L19.9581009,31.204 L19.9581009,31.204 Z M7.47226114,42.7205 L20.1859229,34.6795 L20.1859229,36.417 L8.32422552,43.919 C8.02710978,43.517 7.74345402,43.117 7.47226114,42.7205 L7.47226114,42.7205 L7.47226114,42.7205 Z M27.6048427,3.169 C27.9896973,3.169 28.302267,3.466 28.302267,3.8335 C28.302267,4.1985 27.9896973,4.495 27.6048427,4.495 C27.2189911,4.495 26.9069199,4.1985 26.9069199,3.8335 C26.9069199,3.466 27.2189911,3.169 27.6048427,3.169 L27.6048427,3.169 L27.6048427,3.169 Z M0.162017804,0.072 L0.162017804,27.9035 C0.162516321,27.9505 0.229317507,32.946 3.66509199,39.495 C6.81820771,45.5035 13.529733,54.0805 27.6197983,60.9365 C41.7218279,54.0775 48.4248784,45.5015 51.5680238,39.494 C54.9923323,32.946 55.0461721,27.9525 55.0461721,27.903 L55.0461721,0.072 L0.162017804,0.072 L0.162017804,0.072 L0.162017804,0.072 Z" id="Fill-9"></path>
          <path d="M25.3849495,49.016 C24.8196321,49.016 24.4572107,48.689 24.4572107,48.1805 C24.4572107,47.759 24.7109555,47.4685 25.0658991,47.2795 C25.5364985,47.476 25.8191573,47.6215 26.0001187,47.7665 C26.1596439,47.89 26.2394065,48.0645 26.2394065,48.2895 C26.2394065,48.718 25.8914422,49.016 25.3849495,49.016 L25.3849495,49.016 L25.3849495,49.016 Z M25.3196439,45.173 C25.8051988,45.173 26.0873591,45.4055 26.0873591,45.7905 C26.0873591,46.19 25.7099822,46.444 25.3914302,46.604 C25.0514422,46.466 24.5514302,46.2265 24.5514302,45.8045 C24.5514302,45.427 24.8555252,45.173 25.3196439,45.173 L25.3196439,45.173 L25.3196439,45.173 Z M25.9707062,46.909 C26.4712166,46.7205 26.9348368,46.386 26.9348368,45.7905 C26.9348368,45.0785 26.3042137,44.5915 25.3914302,44.5915 C24.602279,44.5915 23.7473234,44.955 23.7473234,45.8775 C23.7473234,46.3645 24.0808308,46.808 24.5220178,46.989 C23.9866113,47.178 23.595276,47.6505 23.595276,48.2385 C23.595276,49.198 24.4716677,49.612 25.3046884,49.612 C26.1377092,49.612 27.1157983,49.089 27.1157983,48.1515 C27.1157983,47.5485 26.6741128,47.1995 25.9707062,46.909 L25.9707062,46.909 L25.9707062,46.909 Z" id="Fill-10"></path>
          <polygon id="Fill-11" points="22.9452107 36.0985 32.2634777 36.0985 32.2634777 33.8655 22.9452107 33.8655"></polygon>
          <path d="M30.071003,19.2585 L30.803822,19.2585 L30.803822,15.566 L30.071003,15.566 L30.071003,19.2585 L30.071003,19.2585 Z M26.4163798,19.2605 L28.7923086,19.2605 L28.7923086,15.561 L26.4163798,15.561 L26.4163798,19.2605 L26.4163798,19.2605 Z M24.4043679,19.2585 L25.1366884,19.2585 L25.1366884,15.566 L24.4043679,15.566 L24.4043679,19.2585 L24.4043679,19.2585 Z M32.0481187,14.3365 L23.1595727,14.3365 L23.1595727,20.6585 L21.2283205,20.6585 L21.2283205,21.944 L33.9803679,21.944 L33.9803679,20.6585 L32.0481187,20.6585 L32.0481187,14.3365 L32.0481187,14.3365 L32.0481187,14.3365 Z" id="Fill-12"></path>
          <path d="M22.2188724,44.6715 L21.6540534,44.6715 L20.1983858,45.696 L20.3933056,46.1245 C20.480546,46.0955 20.7487478,45.979 20.9441662,45.8845 C21.1395846,45.7905 21.3644154,45.6455 21.4367003,45.601 L21.4367003,48.8275 L20.5962017,48.8275 L20.5962017,49.474 L22.8923679,49.474 L22.8923679,48.8275 L22.2188724,48.8275 L22.2188724,44.6715" id="Fill-13"></path>
          <polyline id="Fill-14" points="67.9083918 34.209 69.5495071 33.884 69.7519048 31.832 69.7519048 24.5375 69.5495071 22.4855 67.9083918 22.1605 67.9083918 21.551 72.2838692 21.551 73.3177921 24.5375 76.3766885 32.5225 79.5158459 24.5175 80.4685104 21.551 84.8439883 21.551 84.8439883 22.1605 83.2228128 22.4855 83.0004747 24.5375 83.0004747 31.832 83.2228128 33.884 84.8439883 34.209 84.8439883 34.839 79.2531276 34.839 79.2531276 34.209 80.8733057 33.884 81.0966412 31.832 81.0966412 22.933 77.6120117 31.832 76.5790861 34.839 75.2625045 34.839 74.1687597 31.832 70.6636917 22.933 70.6636917 31.832 70.8865285 33.884 72.5072047 34.209 72.5072047 34.839 67.9083918 34.839 67.9083918 34.209"></polyline>
          <path d="M87.4512286,21.734 C87.4512286,21.043 88.0185402,20.454 88.7279288,20.454 C89.4163795,20.454 90.0041308,21.023 90.0041308,21.754 C90.0041308,22.4045 89.4771988,23.014 88.7279288,23.014 C88.0384806,23.014 87.4512286,22.506 87.4512286,21.734 L87.4512286,21.734 L87.4512286,21.734 Z M86.398362,34.209 L87.8161425,33.945 L88.0185402,32.4005 L88.0185402,28.215 L87.8161425,26.651 L86.1949676,26.3865 L86.1949676,25.7565 L89.9632519,25.3915 L89.7608549,28.215 L89.7608549,32.4005 L89.9632519,33.945 L91.3810324,34.209 L91.3810324,34.839 L86.398362,34.839 L86.398362,34.209 L86.398362,34.209 L86.398362,34.209 Z" id="Fill-15"></path>
          <path d="M98.6025402,32.604 L98.6025402,26.59 C98.0352286,26.346 97.5895551,26.2245 96.9614242,26.2245 C95.057092,26.2245 94.0037267,27.809 94.0037267,30.308 C94.0037267,32.5225 94.8143148,33.8635 96.3941127,33.8635 C97.1035013,33.8635 97.8532701,33.5385 98.6025402,32.604 L98.6025402,32.604 L98.6025402,32.604 Z M92.1801541,30.735 C92.1801541,27.565 94.1662435,25.33 97.0426826,25.33 C97.6094955,25.33 98.0556677,25.3915 98.6025402,25.513 L98.6025402,23.136 L98.3792047,21.5715 L96.7590266,21.3075 L96.7590266,20.6775 L100.547252,20.3115 L100.323917,23.136 L100.323917,32.4005 L100.547252,33.945 L101.863834,34.209 L101.863834,34.839 L98.6025402,35.2655 L98.9061367,33.3355 C97.9744093,34.595 97.0222435,35.2655 95.6852228,35.2655 C93.6393115,35.2655 92.1801541,33.498 92.1801541,30.735 L92.1801541,30.735 L92.1801541,30.735 Z" id="Fill-16"></path>
          <path d="M109.017045,32.604 L109.017045,26.59 C108.449733,26.346 108.00406,26.2245 107.375929,26.2245 C105.471098,26.2245 104.418231,27.809 104.418231,30.308 C104.418231,32.5225 105.228819,33.8635 106.808617,33.8635 C107.518006,33.8635 108.267276,33.5385 109.017045,32.604 L109.017045,32.604 L109.017045,32.604 Z M102.594659,30.735 C102.594659,27.565 104.580249,25.33 107.457187,25.33 C108.024,25.33 108.469674,25.3915 109.017045,25.513 L109.017045,23.136 L108.793709,21.5715 L107.173531,21.3075 L107.173531,20.6775 L110.961756,20.3115 L110.738422,23.136 L110.738422,32.4005 L110.961756,33.945 L112.278338,34.209 L112.278338,34.839 L109.017045,35.2655 L109.320641,33.3355 C108.388914,34.595 107.436748,35.2655 106.099229,35.2655 C104.053317,35.2655 102.594659,33.498 102.594659,30.735 L102.594659,30.735 L102.594659,30.735 Z" id="Fill-17"></path>
          <polyline id="Fill-18" points="113.557032 34.209 114.974813 33.945 115.198148 32.4005 115.198148 23.136 114.974813 21.5715 113.354635 21.3075 113.354635 20.6775 117.12292 20.3115 116.919525 23.136 116.919525 32.4005 117.142861 33.945 118.5407 34.209 118.5407 34.839 113.557032 34.839 113.557032 34.209"></polyline>
          <path d="M123.682896,28.7845 L125.059798,28.581 C125.059798,26.976 124.310529,26.143 123.196344,26.143 C122.06222,26.143 121.27257,26.996 121.049234,28.7845 L123.682896,28.7845 L123.682896,28.7845 L123.682896,28.7845 Z M119.26654,30.3895 C119.26654,27.301 120.826896,25.33 123.358362,25.33 C125.485531,25.33 126.964629,26.712 126.883371,29.597 L121.029294,29.597 C121.029294,29.597 121.008855,29.8815 121.008855,30.044 C121.008855,32.34 122.123039,33.965 124.270148,33.965 C124.918718,33.965 125.648047,33.803 126.356439,33.2745 L126.762231,33.823 C125.607169,34.8795 124.736261,35.2655 123.277602,35.2655 C120.866777,35.2655 119.26654,33.5185 119.26654,30.3895 L119.26654,30.3895 L119.26654,30.3895 Z" id="Fill-19"></path>
          <path d="M135.197128,30.227 C135.197128,28.134 134.30578,26.712 132.948819,26.712 C132.118291,26.712 131.327644,27.057 130.598315,27.9105 L130.598315,32.4005 L130.800712,34.1685 C131.287762,34.331 131.631739,34.4125 132.15867,34.4125 C134.24546,34.4125 135.197128,32.543 135.197128,30.227 L135.197128,30.227 L135.197128,30.227 Z M128.856,34.839 L128.856,23.136 L128.653602,21.5715 L127.033424,21.3075 L127.033424,20.6775 L130.800712,20.3115 L130.598315,23.136 L130.598315,26.9555 C131.348083,25.96 132.441828,25.33 133.678148,25.33 C135.622861,25.33 136.979822,26.996 136.979822,29.577 C136.979822,32.726 135.095929,35.2655 131.449282,35.2655 C130.598315,35.2655 130.011062,35.2655 128.856,34.839 L128.856,34.839 L128.856,34.839 Z" id="Fill-20"></path>
          <path d="M139.330326,32.096 L139.330326,28.215 L139.106991,26.651 L137.526694,26.3865 L137.526694,25.7565 L141.275039,25.3915 L141.071644,28.215 L141.071644,31.629 C141.071644,33.0305 141.719715,33.884 142.996415,33.884 C143.867822,33.884 144.657471,33.3555 145.224285,32.665 L145.224285,28.215 L145.021887,26.651 L143.442089,26.3865 L143.442089,25.7565 L147.189436,25.3915 L146.966599,28.215 L146.966599,32.4005 L147.189436,33.945 L148.648095,34.209 L148.648095,34.839 L145.224285,35.2045 L145.44762,33.3765 C144.494955,34.697 143.644486,35.2655 142.206766,35.2655 C140.423573,35.2655 139.330326,34.128 139.330326,32.096" id="Fill-21"></path>
          <polyline id="Fill-22" points="158.688214 39.6545 158.688214 38.9635 160.714184 38.6385 161.584593 37.216 162.456499 35.164 159.61994 28.215 158.789413 26.6305 157.877626 26.3865 157.877626 25.7565 162.313923 25.7565 162.313923 26.3865 161.01778 26.6305 161.504332 28.215 163.326908 32.9085 165.029341 28.215 165.474017 26.6305 164.198813 26.3865 164.198813 25.7565 167.844463 25.7565 167.844463 26.3865 166.811537 26.6305 166.042326 28.215 161.62597 39.9185 158.688214 39.6545"></polyline>
          <path d="M155.98476,25.603 C154.835181,25.603 153.927383,26.2485 153.079407,27.679 C153.076914,27.6575 153.072926,27.6355 153.071929,27.6135 L153.07492,27.3765 C153.081899,27.273 153.093365,27.17 153.104831,27.0665 C153.130754,26.841 153.156178,26.615 153.181602,26.3895 C153.218991,26.0595 153.25638,25.7295 153.293769,25.3995 L149.732368,25.7645 L149.732368,26.394 L151.351549,26.658 L151.573887,28.22 L151.573887,32.4005 L151.351549,33.943 L149.935264,34.2065 L149.935264,34.836 L155.134291,34.836 L155.134291,34.2065 L153.516107,33.943 L153.293769,32.4005 L153.293769,31.9145 L153.293769,30.595 L153.293769,29.1305 L153.293769,28.7285 L153.293769,28.5625 C153.293769,28.536 153.295762,28.5085 153.297756,28.4805 C153.884012,27.753 154.670172,27.49 155.276368,27.49 C155.701602,27.49 156.12584,27.6325 156.470315,27.7945 L156.976308,25.745 C156.551074,25.623 156.349175,25.603 155.98476,25.603" id="Fill-23"></path>
        </g>
      </g>
    </g>
  </g>
</svg>